<svg width="69" height="69" viewBox="0 0 69 69" fill="none" xmlns="http://www.w3.org/2000/svg">
<circle cx="34.5" cy="34.5" r="34.5" fill="white"/>
<path d="M38.5615 27.0918L56.625 54.6035C57.9348 56.5985 56.5037 59.25 54.1172 59.25H15.0049C12.6185 59.2498 11.1875 56.5984 12.4971 54.6035L30.5615 27.0918V7H32V27.3975C31.9632 27.4534 31.9275 27.5109 31.8936 27.5703L17.3848 53.0137C16.2445 55.0135 17.6883 57.4996 19.9902 57.5H49.0088C51.3111 57.5 52.7557 55.0136 51.6152 53.0137L37.1055 27.5703C37.0718 27.5113 37.0366 27.454 37 27.3984V7H38.5615V27.0918Z" fill="black"/>
<rect x="29" y="5" width="11" height="2" rx="1" fill="black"/>
<path d="M33.3832 41.2668C38.3832 40.7668 38.7055 42.8346 43.3832 42.2668C44.182 42.1698 44.8183 42.0768 45.3295 41.9914L51.6157 53.0138C52.7558 55.0137 51.3112 57.5 49.0092 57.5002H19.9906C17.6886 57.5 16.2449 55.0137 17.3852 53.0138L23.016 43.1388C23.595 43.2135 24.6141 43.2668 26.8832 43.2668C28.8502 43.2668 30.7826 41.5268 33.3832 41.2668Z" fill="#648CA5"/>
<circle cx="25" cy="47" r="1" fill="white"/>
<circle cx="42.5" cy="49.5" r="1.5" fill="white"/>
<circle cx="30" cy="55" r="2" fill="white"/>
<circle cx="36" cy="44" r="1" fill="white"/>
</svg>
